<svg xmlns="http://www.w3.org/2000/svg" width="512" height="512" style="enable-background:new 0 0 512 512" xml:space="preserve"><g fill="#66bb6a"><path xmlns="http://www.w3.org/2000/svg" d="M101.945 337.465H15c-8.285 0-15 6.715-15 15V497c0 8.285 6.715 15 15 15h86.95c8.28 0 15-6.715 15-15V352.465c-.005-8.285-6.72-15-15.005-15zM263.297 256.676h-86.95c-8.285 0-15 6.715-15 15V497c0 8.285 6.715 15 15 15h86.95c8.281 0 15-6.715 15-15V271.676c0-8.285-6.719-15-15-15zM424.64 134.66h-86.945c-8.285 0-15 6.715-15 15V497c0 8.285 6.715 15 15 15h86.946c8.285 0 15-6.715 15-15V149.66c0-8.285-6.715-15-15-15zM15.992 188.586c2.352 0 4.738-.555 6.969-1.727l156.664-82.382 62.36 32.328a14.988 14.988 0 0 0 14.21-.22l138.926-77.523-5.344 14.102c-2.937 7.746.961 16.406 8.707 19.344 1.75.66 3.547.976 5.313.976 6.055 0 11.758-3.691 14.031-9.687l19.86-52.395a14.84 14.84 0 0 0 .886-3.914c.09-.847.106-1.715.04-2.562a14.953 14.953 0 0 0-1.852-6.278c-2.559-4.586-7.164-7.296-12.04-7.644L370.98.293c-8.12-1.621-16.023 3.652-17.64 11.777-1.621 8.125 3.652 16.024 11.777 17.645l15.5 3.086-131.992 73.656-62.145-32.219a14.993 14.993 0 0 0-13.882.043L8.996 160.305c-7.332 3.86-10.148 12.925-6.293 20.257 2.684 5.106 7.895 8.024 13.29 8.024zm0 0" data-original="#000000"/></g></svg>