<svg fill="#000" version="1.1" id="Capa_1" xmlns="http://www.w3.org/2000/svg" width="800" height="800" viewBox="0 0 108.423 108.423" xml:space="preserve"><path d="m90.288 24.301-9.181 3.078 1.054 3.144c-.401-.54-.813-1.07-1.244-1.587l-1.727-5.15 4.583-1.535-3.08-9.183-9.182 3.078 2.014 6.003a36.008 36.008 0 0 0-17.421-6.32c-.078-.007-.146.003-.222.002l-.016-.002c-21.993-.762-45.111 12.02-43.113 36.752.008.1.033.189.051.282-.029.256-.029.524.033.815 1.206 5.644-.645 10.605-5.278 14.065a2.6 2.6 0 0 0-.517.528 2.664 2.664 0 0 0-1.037 1.352c-.869 2.494-.209 5.033 1.784 6.768.329.287.709.48 1.105.586 1.287.711 2.632 1.184 4.029 1.514-.287 1.549-.146 3.115.6 4.59-1.393 2.715-.468 5.71 2.282 7.346.155.092.31.161.462.217.467.555.512 1.446.34 2.306-.053.263-.06.524-.04.78-.012.232-.005.47.04.707.725 3.804 3.973 5.902 7.69 5.971.2.004.385-.016.559-.051.172.006.352-.004.538-.033 5.969-.967 12.765-.428 15.007 6.129.448 1.311 1.646 1.754 2.719 1.581.362.271.838.426 1.438.384 10.816-.756 21.537-2.327 32.276-3.77.38-.051.709-.174.993-.348 1.302-.404 2.354-1.863 1.513-3.434-7.176-13.381 7.371-27.975 10.133-40.827.061-.276.061-.535.036-.78a39.228 39.228 0 0 0-3.906-23.172l7.765-2.602-3.08-9.184zm-10.846-8.845 1.808 5.39-5.39 1.806-1.808-5.389 5.39-1.807zm-.731 30.905-5.389 1.807-1.807-5.39-5.39 1.807-1.722-5.136-5.389 1.807-1.808-5.389 5.39-1.808 1.722 5.136 5.389-1.807-1.722-5.135 5.389-1.808-1.807-5.389 5.39-1.809 1.809 5.39-5.392 1.808 1.809 5.39-5.39 1.807 1.723 5.135 5.389-1.807-1.665-4.967 5.39-1.807 1.808 5.389-5.391 1.808 1.664 4.968zm6.744-12.476-1.807-5.389 5.389-1.807 1.808 5.39-5.39 1.806z"/><path d="m83.335 16.145 3.079 9.183 9.182-3.078-3.078-9.183-9.183 3.078zm4.349 6.507-1.808-5.39 5.39-1.807 1.807 5.39-5.389 1.807zM86.001 11.016l-3.079-9.183-9.182 3.078 3.079 9.183 9.182-3.078zM81.67 4.222l1.808 5.39-5.39 1.807-1.807-5.39 5.389-1.807zM102.792 9.182 99.713 0l-9.182 3.078 3.079 9.182 9.182-3.078zm-4.331-6.793 1.808 5.389-5.39 1.807-1.807-5.389 5.389-1.807z"/></svg>